<?xml version="1.0" encoding="UTF-8" standalone="no"?><svg xmlns="http://www.w3.org/2000/svg" xmlns:xlink="http://www.w3.org/1999/xlink" contentScriptType="application/ecmascript" contentStyleType="text/css" height="131px" preserveAspectRatio="none" style="width:1012px;height:131px;" version="1.1" viewBox="0 0 1012 131" width="1012px" zoomAndPan="magnify"><defs><filter height="300%" id="f13sit99dwvxpd" width="300%" x="-1" y="-1"><feGaussianBlur result="blurOut" stdDeviation="2.0"/><feColorMatrix in="blurOut" result="blurOut2" type="matrix" values="0 0 0 0 0 0 0 0 0 0 0 0 0 0 0 0 0 0 .4 0"/><feOffset dx="4.0" dy="4.0" in="blurOut2" result="blurOut3"/><feBlend in="SourceGraphic" in2="blurOut3" mode="normal"/></filter></defs><g><rect fill="#FEFECE" filter="url(#f13sit99dwvxpd)" height="52.9766" rx="12.5" ry="12.5" style="stroke: #A80036; stroke-width: 1.5;" width="66" x="423" y="40"/><text fill="#000000" font-family="sans-serif" font-size="14" lengthAdjust="spacingAndGlyphs" textLength="46" x="433" y="63.5352">toy toy</text><text fill="#000000" font-family="sans-serif" font-size="14" lengthAdjust="spacingAndGlyphs" textLength="38" x="433" y="80.0234">beam</text><rect fill="#FEFECE" filter="url(#f13sit99dwvxpd)" height="36.4883" rx="12.5" ry="12.5" style="stroke: #A80036; stroke-width: 1.5;" width="76" x="539" y="20"/><text fill="#000000" font-family="sans-serif" font-size="14" lengthAdjust="spacingAndGlyphs" textLength="56" x="549" y="43.5352">言語制作</text><text fill="#000000" font-family="sans-serif" font-size="14" lengthAdjust="spacingAndGlyphs" textLength="141" x="668" y="34.291">Crafting Interpreters</text><path d="M615,38.2441 L625,38.2441 C640,38.2441 640,29 655,29 L665,29 " fill="none" style="stroke: #A80036; stroke-width: 1.0;"/><text fill="#000000" font-family="sans-serif" font-size="14" lengthAdjust="spacingAndGlyphs" textLength="332" x="668" y="52.7793">低レイヤを知りたい人のためのCコンパイラ作成入門</text><path d="M615,38.2441 L625,38.2441 C640,38.2441 640,47.4883 655,47.4883 L665,47.4883 " fill="none" style="stroke: #A80036; stroke-width: 1.0;"/><path d="M489,66.4883 L499,66.4883 C514,66.4883 514,38.2441 529,38.2441 L539,38.2441 " fill="none" style="stroke: #A80036; stroke-width: 1.0;"/><rect fill="#FEFECE" filter="url(#f13sit99dwvxpd)" height="36.4883" rx="12.5" ry="12.5" style="stroke: #A80036; stroke-width: 1.5;" width="90" x="539" y="76.4883"/><text fill="#000000" font-family="sans-serif" font-size="14" lengthAdjust="spacingAndGlyphs" textLength="70" x="549" y="100.0234">ゲーム開発</text><path d="M489,66.4883 L499,66.4883 C514,66.4883 514,94.7324 529,94.7324 L539,94.7324 " fill="none" style="stroke: #A80036; stroke-width: 1.0;"/><rect fill="#FEFECE" filter="url(#f13sit99dwvxpd)" height="36.4883" rx="12.5" ry="12.5" style="stroke: #A80036; stroke-width: 1.5;" width="71" x="302" y="48.2441"/><text fill="#000000" font-family="sans-serif" font-size="14" lengthAdjust="spacingAndGlyphs" textLength="51" x="312" y="71.7793">UI Nerd</text><text fill="#000000" font-family="sans-serif" font-size="14" lengthAdjust="spacingAndGlyphs" textLength="83" x="166" y="53.291">Text editors</text><text fill="#000000" font-family="sans-serif" font-size="14" lengthAdjust="spacingAndGlyphs" textLength="53" x="60" y="25.5586">VSCode</text><path d="M166,48 L156,48 C141,48 141,20.2676 126,20.2676 L116,20.2676 " fill="none" style="stroke: #A80036; stroke-width: 1.0;"/><text fill="#000000" font-family="sans-serif" font-size="14" lengthAdjust="spacingAndGlyphs" textLength="103" x="10" y="44.0469">Sublime Text 3</text><path d="M166,48 L156,48 C141,48 141,38.7559 126,38.7559 L116,38.7559 " fill="none" style="stroke: #A80036; stroke-width: 1.0;"/><text fill="#000000" font-family="sans-serif" font-size="14" lengthAdjust="spacingAndGlyphs" textLength="53" x="60" y="62.5352">NeoVim</text><path d="M166,48 L156,48 C141,48 141,57.2441 126,57.2441 L116,57.2441 " fill="none" style="stroke: #A80036; stroke-width: 1.0;"/><text fill="#000000" font-family="sans-serif" font-size="14" lengthAdjust="spacingAndGlyphs" textLength="70" x="43" y="81.0234">Evil Emacs</text><path d="M166,48 L156,48 C141,48 141,75.7324 126,75.7324 L116,75.7324 " fill="none" style="stroke: #A80036; stroke-width: 1.0;"/><path d="M302,66.4883 L292,66.4883 C277,66.4883 277,48 262,48 L252,48 " fill="none" style="stroke: #A80036; stroke-width: 1.0;"/><text fill="#000000" font-family="sans-serif" font-size="14" lengthAdjust="spacingAndGlyphs" textLength="71" x="178" y="108.7559">languages</text><text fill="#000000" font-family="sans-serif" font-size="14" lengthAdjust="spacingAndGlyphs" textLength="58" x="67" y="99.5117">AsciiDoc</text><path d="M178,103.4648 L168,103.4648 C153,103.4648 153,94.2207 138,94.2207 L128,94.2207 " fill="none" style="stroke: #A80036; stroke-width: 1.0;"/><text fill="#000000" font-family="sans-serif" font-size="14" lengthAdjust="spacingAndGlyphs" textLength="71" x="54" y="118">org-mode</text><path d="M178,103.4648 L168,103.4648 C153,103.4648 153,112.709 138,112.709 L128,112.709 " fill="none" style="stroke: #A80036; stroke-width: 1.0;"/><path d="M302,66.4883 L292,66.4883 C277,66.4883 277,103.4648 262,103.4648 L252,103.4648 " fill="none" style="stroke: #A80036; stroke-width: 1.0;"/><path d="M423,66.4883 L413,66.4883 C398,66.4883 398,66.4883 383,66.4883 L373,66.4883 " fill="none" style="stroke: #A80036; stroke-width: 1.0;"/><!--MD5=[6d9e60c792a47722579f578dbd87bcc1]
@startmindmap

+ toy toy\nbeam
++ 言語制作
+++_ Crafting Interpreters
+++_ 低レイヤを知りたい人のためのCコンパイラ作成入門
++ ゲーム開発
- - UI Nerd
- - -_ Text editors
- - - -_ VSCode
- - - -_ Sublime Text 3
- - - -_ NeoVim
- - - -_ Evil Emacs
- - -_ languages
- - - -_ AsciiDoc
- - - -_ org-mode
@endmindmap

PlantUML version 1.2020.06(Sun Apr 05 21:38:32 JST 2020)
(APACHE source distribution)
Java Runtime: Java(TM) SE Runtime Environment
JVM: Java HotSpot(TM) 64-Bit Server VM
Java Version: 1.8.0_131-b11
Operating System: Mac OS X
Default Encoding: UTF-8
Language: en
Country: US
--></g></svg>